PathFileType	4	(X/Y/Z)	/Users/itak/Documents/Research/Walk-IL/dataset/trc/00460_00167.trc
DataRate	CameraRate	NumFrames	NumMarkers	Units	OrigDataRate	OrigDataStartFrame	OrigNumFrames
100.000000	100.000000	4	53	mm	100.000000	256	683
Frame#	Time	RPSI			LPSI			L3			STRN			T10			C7			CLAV			RBAK			LBAK			LSHO			LUPA			LAEL			LAOL			LWTS			LWPS			LFRA			LIFD			LHPS			LHTS			RSHO			RUPA			RAEL			RAOL			RWTS			RWPS			RFRA			RIFD			RHTS			RHPS			RBHD			LFHD			RFHD			LBHD			LHIP			RHIP			RASI			LASI			LKNE			LTHI			LANK			LTIP			LTOE			LMT1			LMT5			LHEE			RKNE			RTHI			RANK			RTIP			RTOE			RMT1			RMT5			RHEE			
		X1	Y1	Z1	X2	Y2	Z2	X3	Y3	Z3	X4	Y4	Z4	X5	Y5	Z5	X6	Y6	Z6	X7	Y7	Z7	X8	Y8	Z8	X9	Y9	Z9	X10	Y10	Z10	X11	Y11	Z11	X12	Y12	Z12	X13	Y13	Z13	X14	Y14	Z14	X15	Y15	Z15	X16	Y16	Z16	X17	Y17	Z17	X18	Y18	Z18	X19	Y19	Z19	X20	Y20	Z20	X21	Y21	Z21	X22	Y22	Z22	X23	Y23	Z23	X24	Y24	Z24	X25	Y25	Z25	X26	Y26	Z26	X27	Y27	Z27	X28	Y28	Z28	X29	Y29	Z29	X30	Y30	Z30	X31	Y31	Z31	X32	Y32	Z32	X33	Y33	Z33	X34	Y34	Z34	X35	Y35	Z35	X36	Y36	Z36	X37	Y37	Z37	X38	Y38	Z38	X39	Y39	Z39	X40	Y40	Z40	X41	Y41	Z41	X42	Y42	Z42	X43	Y43	Z43	X44	Y44	Z44	X45	Y45	Z45	X46	Y46	Z46	X47	Y47	Z47	X48	Y48	Z48	X49	Y49	Z49	X50	Y50	Z50	X51	Y51	Z51	X52	Y52	Z52	X53	Y53	Z53	

257	2.56	-663.5659790039062	952.430908203125	-635.7568359375	-685.5569458007812	939.0628662109375	-776.08984375	-655.9229736328125	1046.750244140625	-692.8936767578125	-382.4929809570312	1240.6044921875	-737.5878295898438	-669.3357543945312	1170.500732421875	-691.791748046875	-594.2326049804688	1435.77001953125	-676.0391235351562	-416.3546142578125	1353.960327148438	-725.9091186523438	-643.1032104492188	1309.38916015625	-582.1337890625	-645.6746215820312	1397.330322265625	-771.33349609375	-556.9031982421875	1426.074584960938	-866.0942993164062	-581.3093872070312	1313.899169921875	-968.2608032226562	-560.1917724609375	1101.9580078125	-1020.889526367188	-633.45068359375	1080.865112304688	-950.3489990234375	-462.3944091796875	905.3602294921875	-987.7061767578125	-508.09375	889.1516723632812	-1044.22265625	-533.131591796875	1016.555236816406	-1035.27490234375	-448.9375305175781	735.8472900390625	-997.4432983398438	-495.366943359375	810.0039672851562	-1046.214477539062	-441.0281677246094	819.1571044921875	-1000.171203613281	-504.5079650878906	1395.324462890625	-531.6557006835938	-513.5040283203125	1331.173217773438	-458.1005249023438	-496.0446166992188	1046.859741210938	-403.1470336914062	-552.2741088867188	1024.233154296875	-433.4638671875	-373.141845703125	865.3798828125	-479.0573120117188	-422.8504333496094	836.8174438476562	-412.0256958007812	-481.2077026367188	988.9486083984375	-398.3060913085938	-340.0465087890625	712.9684448242188	-480.4742126464844	-337.77197265625	772.7041015625	-475.5003356933594	-390.81103515625	755.16943359375	-423.1766662597656	-499.2686767578125	1627.213989257812	-587.98779296875	-345.7346801757812	1637.129760742188	-725.697509765625	-361.6367492675781	1627.847412109375	-596.4456787109375	-493.4046936035156	1646.541015625	-764.4013061523438	-564.859130859375	840.5030517578125	-914.278076171875	-517.4364624023438	852.5426635742188	-518.298583984375	-427.669921875	899.2255859375	-598.3069458007812	-460.057861328125	887.9883422851562	-853.06494140625	-470.5359497070312	438.2255554199219	-951.3294067382812	-464.9705505371094	594.7666015625	-957.7720336914062	-826.2335205078125	199.0812377929688	-878.2554931640625	-589.4368286132812	330.4924926757812	-943.5797119140625	-649.8939208984375	40.43896102905273	-851.7332763671875	-688.645263671875	95.27205657958984	-809.5198364257812	-731.7468872070312	85.0576171875	-911.3759155273438	-828.0121459960938	236.8511657714844	-810.1322631835938	-484.1633911132812	459.3663940429688	-603.8271484375	-466.92578125	718.3366088867188	-540.3702392578125	-517.0152587890625	39.47876739501953	-659.525390625	-474.2448425292969	316.7577819824219	-617.051513671875	-311.85595703125	47.24958801269531	-746.7822875976562	-380.744873046875	54.26667785644531	-768.4327392578125	-380.5039367675781	46.14714431762695	-660.87158203125	-588.8099365234375	31.02168655395508	-694.6136474609375	
258	2.57	-657.094482421875	952.2394409179688	-637.3563842773438	-677.5126342773438	939.03955078125	-777.9974365234375	-648.8872680664062	1046.677978515625	-694.0934448242188	-375.6534729003906	1241.2568359375	-737.2532958984375	-662.7445068359375	1170.520751953125	-692.7586669921875	-587.8255615234375	1435.876586914062	-676.4439086914062	-409.8242797851562	1354.515380859375	-725.8184204101562	-636.8365478515625	1309.5390625	-582.6197509765625	-639.0790405273438	1397.32177734375	-771.805419921875	-550.23388671875	1426.333251953125	-866.3385009765625	-573.9676513671875	1314.0625	-968.6109619140625	-550.9471435546875	1102.538696289062	-1021.568542480469	-623.6450805664062	1080.33837890625	-950.7700805664062	-450.0294799804688	907.5889892578125	-989.2808227539062	-495.8112182617188	890.7384033203125	-1045.455932617188	-522.7420043945312	1017.558227539062	-1036.177001953125	-433.2279968261719	738.4537963867188	-1000.428466796875	-481.5358276367188	811.9916381835938	-1048.12548828125	-426.9707946777344	822.0034790039062	-1002.608337402344	-498.4378051757812	1395.637573242188	-531.79736328125	-507.1747131347656	1331.341552734375	-458.3456726074219	-487.6305847167969	1047.296142578125	-403.4046630859375	-543.4669799804688	1024.009033203125	-434.0000305175781	-361.8958740234375	867.6754150390625	-478.4709167480469	-411.6913452148438	838.3944702148438	-411.8197326660156	-472.0986328125	989.5927734375	-398.48828125	-326.1318664550781	715.8840942382812	-479.0780334472656	-324.8287048339844	775.6720581054688	-474.2662353515625	-378.0966186523438	757.3088989257812	-422.39306640625	-492.8215637207031	1627.470825195312	-588.3812866210938	-338.9317626953125	1637.248413085938	-725.720947265625	-355.1715087890625	1627.893188476562	-596.5070190429688	-486.4461975097656	1646.890869140625	-764.8132934570312	-554.3300170898438	841.507080078125	-915.1240844726562	-512.4524536132812	852.3878784179688	-518.180419921875	-421.6205749511719	899.1704711914062	-596.84814453125	-451.2088928222656	888.7719116210938	-851.6298828125	-451.7082214355469	441.3943481445312	-952.4702758789062	-448.7135620117188	597.9130249023438	-958.599853515625	-802.1958618164062	193.9803009033203	-883.333740234375	-568.7858276367188	331.4578857421875	-946.28271484375	-619.7327270507812	40.85520172119141	-863.8405151367188	-660.5455932617188	92.61443328857422	-819.0178833007812	-703.1156616210938	85.83815002441406	-921.4967041015625	-805.6141357421875	228.8110504150391	-813.5725708007812	-480.4034118652344	459.2366638183594	-603.8527221679688	-462.2882690429688	717.9981079101562	-539.9296875	-516.9976806640625	39.47483825683594	-659.5471801757812	-471.7990112304688	316.4276428222656	-617.1473388671875	-311.74609375	47.18782424926758	-746.7301025390625	-380.6083374023438	54.2852668762207	-768.3616333007812	-380.4813232421875	46.0933952331543	-660.7599487304688	-588.7760620117188	31.12805366516113	-694.6565551757812	
259	2.58	-650.631103515625	952.0463256835938	-639.0191650390625	-669.5091552734375	938.999267578125	-779.9398803710938	-641.84619140625	1046.665405273438	-695.3230590820312	-368.850341796875	1241.90087890625	-736.8867797851562	-656.1438598632812	1170.5556640625	-693.7852172851562	-581.4754638671875	1436.012573242188	-676.9244384765625	-403.322265625	1355.072998046875	-725.7285766601562	-630.622802734375	1309.699096679688	-583.1912231445312	-632.4597778320312	1397.33056640625	-772.3828125	-543.4994506835938	1426.645141601562	-866.6319580078125	-566.5630493164062	1314.328125	-969.0361328125	-541.8806762695312	1103.168701171875	-1022.230529785156	-613.92431640625	1079.919799804688	-951.0765380859375	-437.82568359375	909.9017944335938	-990.9398803710938	-483.833251953125	892.3565063476562	-1046.609008789062	-512.58837890625	1018.60986328125	-1037.067749023438	-417.8773193359375	741.1473388671875	-1003.284851074219	-468.1416015625	813.9842529296875	-1049.852905273438	-413.1546020507812	824.90869140625	-1005.098205566406	-492.4763488769531	1396.040405273438	-531.9918823242188	-500.9822387695312	1331.621215820312	-458.6178588867188	-479.4192810058594	1047.819091796875	-403.7485961914062	-534.8057861328125	1023.894958496094	-434.7180480957031	-350.8987121582031	869.972900390625	-477.8038635253906	-400.9285888671875	840.0066528320312	-411.6290283203125	-463.2469787597656	990.3063354492188	-398.7361755371094	-312.7528381347656	718.7593994140625	-477.6095886230469	-312.3069763183594	778.5958862304688	-472.9114685058594	-365.90283203125	759.4697265625	-421.60302734375	-486.396240234375	1627.814819335938	-588.833984375	-332.1693725585938	1637.306640625	-725.8468017578125	-348.7147216796875	1627.944213867188	-596.6728515625	-479.5281982421875	1647.262451171875	-765.2932739257812	-543.850341796875	842.5405883789062	-915.956298828125	-507.5057373046875	852.1889038085938	-518.1615600585938	-415.6372375488281	899.0435180664062	-595.479736328125	-442.4477844238281	889.5509643554688	-850.2189331054688	-433.10400390625	444.6640930175781	-953.2277221679688	-432.6143188476562	601.1368408203125	-959.0652465820312	-777.431640625	187.8361358642578	-888.4923095703125	-548.0868530273438	332.2600402832031	-948.8300170898438	-588.8135986328125	41.25156784057617	-875.4554443359375	-631.5995483398438	89.80303955078125	-828.353271484375	-673.8310546875	86.06281280517578	-931.223876953125	-782.4381713867188	219.7248840332031	-817.2965087890625	-476.5516967773438	459.0798950195312	-603.9708862304688	-457.6705322265625	717.6441650390625	-539.5784301757812	-516.9718017578125	39.48503112792969	-659.5764770507812	-469.2713623046875	316.088134765625	-617.3347778320312	-311.6119384765625	47.11726760864258	-746.6748046875	-380.4342041015625	54.31706237792969	-768.2767333984375	-380.4534606933594	46.03681945800781	-660.6365356445312	-588.7587890625	31.29304313659668	-694.71484375	
260	2.59	-644.16455078125	951.847900390625	-640.7333374023438	-661.5342407226562	938.9246826171875	-781.9044799804688	-634.82373046875	1046.688110351562	-696.5530395507812	-362.064453125	1242.5205078125	-736.4876098632812	-649.5033569335938	1170.584106445312	-694.8640747070312	-575.1700439453125	1436.165161132812	-677.4739990234375	-396.8290100097656	1355.615966796875	-725.6353759765625	-624.4508056640625	1309.853759765625	-583.8403930664062	-625.8018188476562	1397.341796875	-773.0609741210938	-536.6830444335938	1426.9794921875	-866.9757690429688	-559.07421875	1314.662353515625	-969.532958984375	-532.954345703125	1103.818359375	-1022.899536132812	-604.3109130859375	1079.58642578125	-951.3488159179688	-425.7898559570312	912.2593383789062	-992.6404418945312	-472.1283569335938	893.9586181640625	-1047.679321289062	-502.6314086914062	1019.675720214844	-1037.959228515625	-402.8883666992188	743.8853149414062	-1005.917175292969	-455.1571044921875	815.935791015625	-1051.377319335938	-399.5969848632812	827.8287963867188	-1007.566162109375	-486.6137084960938	1396.5126953125	-532.2320556640625	-494.9242858886719	1331.993530273438	-458.9115600585938	-471.4202880859375	1048.408813476562	-404.1524353027344	-526.2982788085938	1023.876708984375	-435.5755310058594	-340.1661376953125	872.2605590820312	-477.0794982910156	-390.5508117675781	841.6298828125	-411.4624633789062	-454.6571044921875	991.068359375	-399.0312194824219	-299.9131774902344	721.5776977539062	-476.1356811523438	-300.2127685546875	781.458251953125	-471.490966796875	-354.2203674316406	761.6251220703125	-420.8460998535156	-480.0053100585938	1628.224975585938	-589.3378295898438	-325.4506530761719	1637.316650390625	-726.05615234375	-342.280029296875	1628.00927734375	-596.9215087890625	-472.6604614257812	1647.634033203125	-765.8273315429688	-533.4204711914062	843.5852661132812	-916.7736206054688	-502.5737609863281	851.9442749023438	-518.24609375	-409.7073669433594	898.8443603515625	-594.22509765625	-433.7626342773438	890.3355712890625	-848.8614501953125	-414.7823181152344	447.9675903320312	-953.6358032226562	-416.7086181640625	604.4054565429688	-959.1903076171875	-751.9603271484375	180.7494354248047	-893.7269897460938	-527.3643798828125	332.8632507324219	-951.2244873046875	-557.2574462890625	41.62905120849609	-886.5635986328125	-601.8618774414062	86.8719482421875	-837.4950561523438	-644.0001831054688	85.73565673828125	-940.5517578125	-758.4506225585938	209.7165832519531	-821.2984008789062	-472.6423034667969	458.8957214355469	-604.1912231445312	-453.0704956054688	717.2687377929688	-539.3377685546875	-516.9357299804688	39.51117324829102	-659.6221313476562	-466.6885986328125	315.7381591796875	-617.614990234375	-311.4540100097656	47.03863143920898	-746.6143798828125	-380.2292785644531	54.3581428527832	-768.1867065429688	-380.420654296875	45.97797012329102	-660.5064086914062	-588.765625	31.52645492553711	-694.7931518554688	
